<svg width="1200" height="800" viewBox="0 0 1200 800" fill="none" xmlns="http://www.w3.org/2000/svg">
  <rect width="1200" height="800" fill="#EEF2FF"/>
  <rect x="80" y="90" width="1040" height="620" rx="28" fill="white" stroke="#C7D2FE" stroke-width="2"/>
  <rect x="130" y="145" width="260" height="42" rx="12" fill="#6366F1" fill-opacity="0.18"/>
  <rect x="130" y="210" width="480" height="18" rx="9" fill="#E2E8F0"/>
  <rect x="130" y="238" width="360" height="18" rx="9" fill="#E2E8F0"/>
  <rect x="130" y="290" width="300" height="340" rx="20" fill="#F8FAFC" stroke="#E2E8F0"/>
  <rect x="450" y="290" width="300" height="340" rx="20" fill="#F8FAFC" stroke="#E2E8F0"/>
  <rect x="770" y="290" width="300" height="340" rx="20" fill="#F8FAFC" stroke="#E2E8F0"/>
  <path d="M170 520C220 420 280 560 340 470C380 410 430 440 430 440" stroke="#6366F1" stroke-width="12" stroke-linecap="round"/>
  <circle cx="490" cy="420" r="52" fill="#EC4899" fill-opacity="0.2"/>
  <circle cx="580" cy="495" r="35" fill="#F59E0B" fill-opacity="0.25"/>
  <rect x="805" y="370" width="230" height="18" rx="9" fill="#CBD5E1"/>
  <rect x="805" y="405" width="190" height="18" rx="9" fill="#CBD5E1"/>
  <rect x="805" y="440" width="210" height="18" rx="9" fill="#CBD5E1"/>
</svg>
