<svg width="1200" height="800" viewBox="0 0 1200 800" fill="none" xmlns="http://www.w3.org/2000/svg">
  <rect width="1200" height="800" fill="#ECFEFF"/>
  <rect x="140" y="80" width="920" height="640" rx="36" fill="white" stroke="#A5F3FC" stroke-width="2"/>
  <rect x="210" y="150" width="220" height="480" rx="32" fill="#F0FDFF" stroke="#BAE6FD"/>
  <rect x="490" y="150" width="220" height="480" rx="32" fill="#F0FDFF" stroke="#BAE6FD"/>
  <rect x="770" y="150" width="220" height="480" rx="32" fill="#F0FDFF" stroke="#BAE6FD"/>
  <circle cx="320" cy="260" r="58" fill="#06B6D4" fill-opacity="0.25"/>
  <rect x="255" y="350" width="130" height="16" rx="8" fill="#67E8F9"/>
  <rect x="255" y="380" width="105" height="16" rx="8" fill="#CFFAFE"/>
  <path d="M545 440C575 360 635 500 665 410" stroke="#06B6D4" stroke-width="10" stroke-linecap="round"/>
  <rect x="545" y="490" width="120" height="16" rx="8" fill="#67E8F9"/>
  <rect x="825" y="250" width="110" height="210" rx="16" fill="#22D3EE" fill-opacity="0.2"/>
  <rect x="815" y="500" width="130" height="16" rx="8" fill="#67E8F9"/>
  <rect x="815" y="530" width="85" height="16" rx="8" fill="#CFFAFE"/>
</svg>
