<svg width="1200" height="800" viewBox="0 0 1200 800" fill="none" xmlns="http://www.w3.org/2000/svg">
  <rect width="1200" height="800" fill="#FDF2F8"/>
  <rect x="90" y="90" width="1020" height="620" rx="32" fill="white" stroke="#FBCFE8" stroke-width="2"/>
  <rect x="140" y="140" width="920" height="80" rx="16" fill="#EC4899" fill-opacity="0.12"/>
  <rect x="170" y="170" width="220" height="22" rx="11" fill="#EC4899"/>
  <rect x="140" y="260" width="280" height="190" rx="20" fill="#FFF1F2" stroke="#FBCFE8"/>
  <rect x="460" y="260" width="280" height="190" rx="20" fill="#FFF1F2" stroke="#FBCFE8"/>
  <rect x="780" y="260" width="280" height="190" rx="20" fill="#FFF1F2" stroke="#FBCFE8"/>
  <rect x="140" y="490" width="440" height="170" rx="20" fill="#FFF1F2" stroke="#FBCFE8"/>
  <rect x="620" y="490" width="440" height="170" rx="20" fill="#FFF1F2" stroke="#FBCFE8"/>
  <rect x="175" y="300" width="120" height="40" rx="12" fill="#EC4899" fill-opacity="0.2"/>
  <rect x="500" y="300" width="120" height="40" rx="12" fill="#EC4899" fill-opacity="0.2"/>
  <rect x="820" y="300" width="120" height="40" rx="12" fill="#EC4899" fill-opacity="0.2"/>
  <path d="M210 560H510" stroke="#F9A8D4" stroke-width="12" stroke-linecap="round"/>
  <path d="M690 560H990" stroke="#F9A8D4" stroke-width="12" stroke-linecap="round"/>
  <path d="M210 605H450" stroke="#FBCFE8" stroke-width="12" stroke-linecap="round"/>
  <path d="M690 605H930" stroke="#FBCFE8" stroke-width="12" stroke-linecap="round"/>
</svg>
